<svg width="0" height="0" version="1.1" xmlns="http://www.w3.org/2000/svg" xmlns:xlink="http://www.w3.org/1999/xlink">
  <defs>
    <symbol id="chevron-right"  viewBox="0 0 17 32">
      <title>Go</title>
      <path d="M-0.002 30.904l14.905-14.905-14.902-14.907 1.091-1.094 15.999 16.002-15.999 16.001-1.094-1.097z"></path>
      </symbol>
      <symbol id="map-marker" viewBox="0 0 21 32">
        <title></title>
        <path d="M10.67 0c-5.893 0-10.67 4.78-10.67 10.666 0 1.651 0.386 3.208 1.055 4.604h-0.006l0.038 0.066c0.23 0.471 0.486 0.927 0.78 1.356l8.803 15.308 8.721-15.207c1.221-1.735 1.944-3.844 1.944-6.128 0-5.886-4.783-10.666-10.666-10.666zM10.67 13.848c-2.121 0-3.825-1.72-3.825-3.826 0-2.114 1.702-3.826 3.825-3.826 2.113 0 3.819 1.711 3.819 3.826 0 2.107-1.706 3.826-3.819 3.826z"></path>
      </symbol>
  </defs>
</svg>
